<?xml version="1.0" standalone="no"?>
<!DOCTYPE svg PUBLIC "-//W3C//DTD SVG 20010904//EN"
 "http://www.w3.org/TR/2001/REC-SVG-20010904/DTD/svg10.dtd">
<svg version="1.0" xmlns="http://www.w3.org/2000/svg"
 width="300.000000pt" height="207.000000pt" viewBox="0 0 300.000000 207.000000"
 preserveAspectRatio="xMidYMid meet">
<metadata>
Created by potrace 1.10, written by Peter Selinger 2001-2011
</metadata>
<g transform="translate(0.000000,207.000000) scale(0.100000,-0.100000)"
fill="#000000" stroke="none">
<path d="M1350 1974 c-182 -48 -354 -199 -385 -339 -6 -26 -4 -25 14 11 12 22
30 50 41 61 10 12 16 23 13 26 -9 10 100 118 114 113 7 -3 12 0 10 6 -1 7 7
14 18 16 28 6 46 22 38 35 -3 5 -1 7 4 4 6 -4 37 7 69 24 60 30 57 28 -25 -26
-50 -33 -91 -94 -91 -138 0 -15 -7 -44 -15 -64 -8 -19 -15 -54 -15 -77 0 -23
-6 -48 -12 -55 -11 -11 -9 -12 8 -2 17 8 25 7 34 -4 9 -11 31 -14 79 -13 l66
2 -65 3 c-96 6 -100 23 -6 23 71 0 80 -2 98 -25 19 -24 23 -25 147 -25 123 0
128 1 151 25 21 22 31 25 99 25 92 0 85 -17 -9 -23 l-65 -3 66 -2 c48 -1 70 2
79 12 6 8 17 13 23 10 9 -3 11 13 9 56 -2 33 -8 60 -12 60 -5 0 -11 14 -14 30
-3 17 -9 44 -12 60 -3 17 -22 52 -41 77 -29 38 -31 43 -10 26 14 -11 37 -34
52 -51 15 -17 38 -37 53 -44 15 -7 46 -42 70 -76 48 -73 53 -73 16 -1 -14 28
-56 81 -92 118 -136 134 -330 190 -502 145z m195 -10 c27 -3 57 -11 65 -18 8
-6 32 -19 52 -29 20 -9 55 -32 77 -52 32 -29 42 -47 52 -93 7 -31 18 -69 26
-84 19 -39 17 -78 -4 -78 -15 0 -16 -2 -3 -10 11 -7 0 -10 -37 -10 -60 0 -73
19 -15 22 l37 1 -34 4 c-18 3 -38 0 -44 -6 -6 -6 -21 -11 -32 -11 -12 0 -32
-11 -45 -25 -22 -23 -31 -25 -112 -25 l-88 0 -1 58 c0 31 -5 66 -10 77 -6 13
-7 -6 -3 -57 l6 -78 -29 0 c-19 0 -38 9 -53 25 -13 14 -33 25 -45 25 -11 0
-26 5 -32 11 -5 5 -30 9 -54 6 l-44 -4 50 -1 c36 -2 46 -5 35 -12 -25 -16 -97
-12 -104 6 -10 27 -6 68 9 88 8 11 15 37 15 58 0 65 45 126 120 163 19 10 44
25 55 35 20 19 82 30 120 23 11 -2 42 -6 70 -9z"/>
<path d="M1451 1666 c9 -8 99 -13 99 -5 0 5 -23 9 -52 9 -28 0 -49 -2 -47 -4z"/>
<path d="M1084 1745 c-15 -20 -24 -38 -21 -41 4 -5 30 27 51 64 15 25 -4 11
-30 -23z"/>
<path d="M992 1606 c-12 -24 -22 -48 -22 -54 0 -5 -7 -12 -14 -15 -8 -3 -18
-21 -21 -40 -5 -28 -13 -36 -34 -40 -41 -8 -58 -55 -43 -113 7 -25 12 -53 12
-64 0 -11 5 -20 10 -20 6 0 10 -7 10 -15 0 -8 -4 -15 -10 -15 -16 0 -32 -39
-22 -56 5 -9 6 -31 2 -49 -4 -18 -1 -62 6 -101 l13 -69 -4 75 c-5 99 12 48 21
-61 6 -71 9 -77 37 -94 30 -18 30 -18 23 1 -4 10 -9 39 -11 64 -4 36 -1 48 14
57 25 16 33 5 54 -74 24 -89 22 -105 -8 -61 -14 20 -25 41 -25 47 0 5 -5 13
-11 17 -7 4 -9 0 -5 -14 4 -11 8 -33 11 -48 2 -16 13 -48 24 -71 12 -24 24
-64 27 -90 3 -27 10 -66 15 -88 8 -33 6 -57 -10 -120 -38 -152 -43 -198 -28
-262 7 -33 12 -64 10 -70 -12 -34 -199 -124 -308 -148 l-60 -13 65 -1 c41 0
60 3 51 8 -10 6 -5 11 20 16 18 4 40 11 49 15 50 24 131 60 136 60 3 0 2 -6
-2 -12 -4 -8 -3 -10 2 -5 5 5 9 14 9 20 0 5 6 12 14 15 9 3 11 0 6 -8 -6 -9
-3 -9 13 -1 12 6 24 17 28 24 5 9 4 9 -7 0 -7 -7 -17 -13 -21 -13 -11 0 17 53
37 70 11 9 12 15 5 20 -28 17 1 260 35 294 9 8 10 18 4 27 -12 19 -11 49 2 49
5 0 8 -4 5 -8 -2 -4 -1 -14 4 -22 6 -10 11 -2 16 25 6 33 8 36 19 21 7 -9 19
-14 28 -10 13 5 15 -1 13 -28 -2 -18 -1 -25 1 -16 6 23 10 22 61 -2 22 -11 45
-20 50 -20 5 0 21 -11 35 -24 23 -22 37 -24 37 -6 0 4 -19 15 -42 26 -75 32
-155 92 -186 139 -18 27 -39 81 -52 138 -13 50 -29 101 -35 112 -19 30 -43
149 -50 243 -4 46 -15 102 -25 125 -11 24 -21 63 -23 87 -3 25 -8 53 -12 64
-5 11 -3 27 3 37 7 10 12 26 12 34 0 8 5 14 12 13 7 -2 15 11 18 27 6 29 7 29
21 -20 14 -47 14 -54 -5 -102 -11 -28 -24 -49 -28 -47 -12 8 -9 -9 6 -28 12
-16 15 -14 31 25 10 23 37 84 62 136 l44 94 -28 29 c-39 41 -65 37 -91 -16z
m57 -69 c-12 -32 -24 -56 -25 -54 -2 2 -8 25 -13 52 -7 40 -6 53 7 71 16 22
18 22 35 5 17 -17 17 -20 -4 -74z m-131 -152 c7 -14 12 -35 12 -45 0 -10 7
-45 15 -76 8 -31 12 -60 10 -64 -3 -5 0 -10 6 -12 5 -2 13 -24 16 -48 6 -40 5
-44 -9 -32 -12 9 -18 10 -23 2 -10 -16 2 -40 19 -40 18 0 27 -35 13 -49 -28
-28 -59 2 -76 73 -12 50 -8 71 10 46 9 -12 10 -12 5 3 -3 10 -6 26 -6 35 0 15
-2 15 -10 2 -5 -8 -10 -10 -10 -5 0 6 7 20 15 31 13 19 12 31 -5 103 -11 46
-18 87 -14 92 9 16 20 10 32 -16z"/>
<path d="M1882 1618 c-20 -32 -20 -32 -1 -70 10 -20 32 -76 48 -123 16 -47 32
-86 35 -86 23 -1 24 12 5 60 -15 40 -18 65 -13 95 11 67 23 78 24 21 1 -36 4
-44 9 -30 8 19 9 18 14 -5 3 -14 4 -7 1 15 -9 76 -16 105 -26 99 -5 -3 -14 8
-21 25 -16 42 -48 42 -75 -1z m64 -10 c5 -13 7 -45 4 -73 -4 -43 -6 -47 -16
-30 -26 47 -36 94 -22 109 18 21 23 20 34 -6z"/>
<path d="M1151 1537 c-1 -5 19 -50 42 -100 24 -51 49 -103 55 -117 11 -23 12
-23 6 10 -3 19 -13 46 -22 60 -9 14 -31 54 -48 90 -18 36 -33 61 -33 57z"/>
<path d="M1801 1483 c-12 -32 -26 -65 -31 -73 -13 -20 -26 -50 -34 -80 -10
-37 52 87 75 149 10 30 17 56 15 58 -2 3 -14 -22 -25 -54z"/>
<path d="M1896 1438 c5 -21 2 -28 -9 -28 -27 0 -29 -18 -12 -95 17 -76 32
-104 22 -41 -3 19 -3 36 -1 39 10 10 12 125 3 138 -7 9 -7 5 -3 -13z"/>
<path d="M2015 1419 c-4 -17 -4 -33 -1 -36 3 -4 2 -11 -3 -17 -20 -26 -51
-158 -49 -213 1 -50 -9 -111 -28 -163 -4 -13 -6 -13 -15 0 -8 12 -9 10 -5 -6
8 -28 -39 -255 -63 -301 -10 -21 -31 -51 -45 -66 -14 -15 -26 -30 -26 -33 0
-10 29 -3 34 9 3 6 4 -8 1 -33 -2 -25 -7 -73 -11 -107 -5 -48 -4 -63 6 -63 8
0 11 2 8 5 -3 4 -2 24 3 46 5 21 12 56 15 77 3 20 10 39 16 41 5 1 2 12 -8 22
-11 12 -13 19 -5 19 7 0 9 5 5 13 -5 9 -4 9 6 0 15 -14 17 -53 6 -97 -6 -23
-4 -27 8 -23 10 4 13 1 9 -8 -3 -8 2 -49 12 -90 9 -41 14 -79 10 -84 -3 -5 -1
-12 3 -15 5 -3 5 -28 1 -58 -17 -103 1 -125 153 -197 77 -36 96 -41 155 -40
l68 1 -55 12 c-71 15 -160 51 -235 95 -33 20 -64 34 -68 33 -5 -1 -6 1 -4 5
22 36 26 199 7 258 -6 18 -13 46 -16 61 -3 16 -10 34 -15 40 -7 8 -2 36 16 85
14 40 25 86 25 103 0 17 16 76 35 131 36 102 50 186 20 117 -8 -18 -22 -43
-30 -55 -16 -21 -16 -19 -10 38 4 32 11 67 16 76 5 10 9 26 9 35 0 10 7 26 16
36 12 12 14 22 7 30 -13 17 -7 112 12 168 l15 45 -2 -45 c-1 -25 4 -55 11 -67
7 -15 8 -23 1 -23 -5 0 -10 -15 -9 -32 0 -29 2 -30 10 -13 7 14 8 5 5 -34 -3
-29 -9 -58 -14 -65 -6 -6 -10 -34 -11 -62 0 -29 -5 -63 -10 -77 -8 -20 -7 -25
2 -21 25 9 37 45 57 173 20 120 20 132 5 160 -13 26 -14 42 -5 93 14 87 13
114 -6 132 -23 23 -32 20 -39 -15z"/>
<path d="M1068 1364 c-3 -46 3 -61 22 -49 16 10 13 95 -4 95 -9 0 -15 -15 -18
-46z"/>
<path d="M1420 1387 c0 -8 9 -22 21 -33 12 -10 28 -32 36 -47 8 -16 18 -27 22
-25 13 4 81 96 81 108 0 6 -34 10 -80 10 -60 0 -80 -3 -80 -13z"/>
<path d="M1279 1341 c11 -19 101 -55 101 -40 0 5 -7 9 -16 9 -8 0 -12 4 -9 10
3 5 -6 12 -20 16 -14 3 -25 10 -25 15 0 5 -9 9 -20 9 -17 0 -19 -3 -11 -19z"/>
<path d="M1686 1344 c-9 -8 -19 -13 -24 -10 -4 2 -28 -11 -52 -30 -70 -55 -86
-96 -51 -126 18 -15 19 -15 23 13 3 17 1 32 -3 35 -12 7 35 53 81 77 24 12 44
30 46 40 3 21 0 21 -20 1z"/>
<path d="M1225 1259 c-22 -12 -44 -27 -50 -34 -17 -20 -72 -55 -87 -55 -8 0
-24 14 -36 30 -24 32 -42 39 -42 16 0 -14 61 -66 78 -66 18 0 122 62 117 70
-7 12 37 41 78 50 28 7 29 8 7 9 -14 1 -43 -9 -65 -20z"/>
<path d="M1702 1272 c12 -5 -1 -13 -43 -26 -76 -24 -79 -36 -9 -51 31 -7 33
-6 21 8 -7 9 -11 22 -8 29 3 8 6 6 6 -5 1 -15 4 -16 21 -7 11 6 18 15 15 21
-4 5 -2 9 3 9 17 0 21 -28 6 -41 -22 -18 -9 -22 29 -9 31 12 37 11 88 -22 l55
-35 29 25 c20 17 30 35 31 61 3 29 1 33 -7 18 -6 -10 -8 -24 -6 -31 8 -20 -32
-49 -57 -42 -12 3 -35 18 -51 34 -40 39 -96 72 -120 71 -17 0 -18 -1 -3 -7z"/>
<path d="M1418 1239 c2 -16 8 -29 13 -29 5 0 9 -7 9 -17 0 -9 3 -14 6 -10 10
10 -5 75 -19 80 -10 4 -12 -3 -9 -24z"/>
<path d="M1235 1243 l-29 -16 25 -19 c20 -17 33 -19 83 -14 72 7 88 24 43 44
-46 21 -88 22 -122 5z"/>
<path d="M1262 1169 c-15 -5 -14 -7 5 -13 20 -6 21 -12 16 -57 -5 -45 -12 -56
-60 -102 -30 -29 -58 -53 -63 -55 -4 -2 -21 15 -38 36 -26 32 -32 49 -35 103
l-3 64 -2 -67 c-2 -63 0 -68 37 -116 22 -27 74 -77 115 -111 42 -34 76 -66 76
-70 0 -13 -59 -137 -60 -125 0 17 -94 92 -125 100 -20 5 -26 4 -21 -5 4 -6 11
-9 15 -6 5 2 17 -5 27 -16 10 -11 40 -36 65 -55 38 -27 49 -42 54 -72 3 -21
10 -44 16 -52 7 -11 7 -6 2 15 -12 53 -8 89 20 148 l26 57 145 0 c79 0 156 -4
169 -9 18 -7 31 -26 47 -68 19 -49 20 -65 12 -103 -6 -25 -9 -47 -6 -49 6 -6
24 48 24 72 0 13 10 29 24 37 35 22 118 101 113 107 -8 8 -30 -8 -85 -58 l-50
-46 -25 63 -25 64 59 51 c33 28 62 49 66 46 3 -4 -3 -24 -14 -47 -11 -22 -16
-40 -11 -40 10 0 29 45 32 79 2 14 17 41 33 60 29 36 57 81 50 81 -3 0 -16
-18 -30 -39 l-27 -40 -59 60 c-53 52 -61 66 -67 108 -6 47 -5 49 22 56 l29 8
-25 7 c-38 11 -43 2 -37 -63 5 -56 8 -63 61 -116 31 -31 56 -62 56 -68 0 -6
-17 -25 -37 -43 -21 -17 -54 -47 -74 -65 -33 -29 -41 -32 -75 -26 -22 4 -100
6 -174 5 l-135 -2 -75 68 -74 67 62 59 c58 56 62 62 68 117 5 38 11 57 20 57
8 0 14 3 14 8 0 8 -44 9 -68 1z"/>
<path d="M1531 1115 c-1 -44 11 -71 27 -61 5 3 12 -3 15 -14 6 -25 27 -26 27
-2 0 28 -14 42 -30 32 -12 -7 -17 0 -26 38 l-12 47 -1 -40z"/>
<path d="M1427 979 c-14 -9 -16 -14 -6 -25 10 -12 9 -13 -5 -8 -9 3 -16 2 -16
-4 0 -18 29 -21 40 -4 8 14 11 14 19 3 6 -10 10 -10 16 -1 4 7 -1 20 -11 30
-15 15 -23 16 -37 9z"/>
<path d="M1517 955 c-20 -18 -37 -40 -37 -49 0 -18 16 -22 22 -5 3 9 9 9 25 0
25 -13 40 1 35 32 -2 9 2 17 7 17 6 0 11 6 11 14 0 27 -26 23 -63 -9z"/>
<path d="M1354 952 c-19 -13 -67 -82 -57 -82 9 0 35 27 72 73 14 17 5 23 -15
9z"/>
<path d="M1385 710 c-10 -17 16 -32 47 -28 l34 4 -13 -50 c-16 -60 -17 -130
-3 -121 6 3 10 35 10 69 0 64 16 96 40 81 6 -4 17 -1 25 5 8 6 23 9 34 5 11
-3 29 -2 38 4 12 7 13 10 4 11 -7 0 -11 6 -8 13 4 10 -18 13 -100 13 -57 0
-106 -3 -108 -6z"/>
<path d="M1734 554 c-31 -25 -22 -33 10 -9 30 23 37 7 16 -35 -24 -46 -24 -50
-7 -50 13 0 37 60 37 93 0 25 -26 26 -56 1z"/>
<path d="M1206 512 c-4 -11 -4 -27 0 -36 7 -17 34 -22 34 -6 0 6 5 10 10 10 6
0 10 -9 10 -21 0 -13 -4 -18 -12 -13 -7 3 1 -5 17 -20 33 -28 48 -28 53 -3 4
19 -3 27 -65 75 -38 30 -42 31 -47 14z"/>
<path d="M1716 514 c-9 -8 -16 -13 -16 -9 0 3 -14 -10 -31 -29 -31 -36 -35
-66 -10 -74 10 -3 12 2 8 20 -9 34 4 44 20 16 12 -22 12 -22 13 11 0 29 2 32
15 21 13 -10 15 -9 15 12 0 13 5 29 12 36 8 8 9 12 1 12 -6 0 -19 -7 -27 -16z"/>
<path d="M1107 503 c-2 -10 -5 -50 -6 -89 0 -39 -7 -100 -14 -136 -8 -35 -10
-73 -6 -83 7 -20 8 -20 8 0 1 11 10 48 21 82 10 34 20 82 21 107 3 46 12 50
22 11 3 -11 5 3 6 30 0 28 -4 57 -10 65 -8 11 -9 7 -5 -17 4 -24 2 -31 -8 -27
-7 3 -13 19 -14 36 -1 36 -8 47 -15 21z"/>
<path d="M1380 372 c3 -62 8 -112 13 -112 4 0 20 -6 37 -15 36 -19 41 -19 34
0 -4 8 -10 12 -15 9 -6 -3 -16 0 -24 6 -11 9 -12 17 -4 31 7 15 6 19 -5 19
-16 0 -29 27 -20 41 3 6 15 7 27 3 19 -6 20 -5 9 9 -8 9 -11 21 -7 27 3 5 -1
13 -9 16 -9 3 -16 15 -16 25 0 15 5 17 29 13 23 -5 30 -2 34 12 4 15 5 16 6 3
1 -14 7 -15 39 -8 57 13 62 12 62 -21 0 -31 -9 -37 -27 -19 -8 8 -13 7 -18 -2
-5 -8 -4 -10 3 -5 11 6 16 -6 13 -26 0 -5 8 -8 19 -8 17 0 20 7 20 41 0 22 4
48 9 57 8 15 -1 17 -103 17 l-111 0 5 -113z"/>
<path d="M1834 415 c-3 -25 -3 -60 0 -77 4 -18 9 -54 12 -80 4 -27 10 -48 15
-48 5 0 10 -17 10 -37 1 -21 3 -30 6 -21 2 9 -3 67 -12 128 -9 60 -14 126 -11
145 3 19 2 35 -3 35 -6 0 -13 -20 -17 -45z"/>
<path d="M1180 403 c1 -25 2 -26 11 -9 9 15 13 16 20 5 12 -19 11 -32 -1 -24
-6 3 -10 -5 -10 -18 0 -16 7 -26 20 -30 15 -4 20 0 20 15 0 10 5 16 10 13 7
-4 7 -13 0 -26 -9 -15 -6 -24 14 -46 l25 -27 13 29 c10 22 10 29 0 33 -6 2
-12 9 -12 15 0 11 -92 97 -104 97 -3 0 -6 -12 -6 -27z"/>
<path d="M1698 372 c-46 -46 -57 -61 -52 -79 8 -28 35 -30 52 -3 9 15 10 26 2
40 -7 12 -7 21 0 25 5 3 11 4 11 1 1 -3 2 -9 3 -13 5 -29 19 -32 37 -9 18 23
27 97 12 95 -5 0 -34 -26 -65 -57z"/>
<path d="M1793 375 c3 -6 6 -30 8 -55 1 -25 6 -49 9 -55 4 -5 10 -37 13 -70 4
-42 3 -54 -4 -40 -8 18 -9 17 -4 -5 2 -14 5 -34 6 -45 1 -14 4 -11 10 10 5 19
6 4 3 -42 l-6 -73 36 0 c38 0 48 13 19 24 -14 6 -15 9 -4 15 10 7 9 10 -3 14
-11 5 -16 0 -16 -14 0 -12 -4 -17 -11 -14 -6 4 -7 19 -4 36 12 55 -24 289 -48
314 -7 7 -8 7 -4 0z"/>
<path d="M1132 292 c-12 -77 -16 -139 -8 -131 10 10 34 184 28 196 -4 7 -13
-22 -20 -65z"/>
<path d="M1554 312 c-6 -4 -14 -20 -18 -36 -6 -25 -5 -28 7 -18 8 7 16 9 19 6
9 -8 16 20 9 38 -3 10 -11 14 -17 10z"/>
<path d="M1768 246 c-30 -55 -183 -154 -205 -133 -3 4 0 20 7 36 17 42 6 81
-23 80 -17 0 -19 -2 -5 -7 14 -6 15 -11 3 -44 -7 -21 -9 -36 -5 -33 14 8 8
-49 -7 -72 -17 -26 -43 -31 -43 -8 0 18 -16 20 -26 3 -4 -7 -3 -8 4 -4 7 4 12
2 12 -3 0 -6 -9 -11 -21 -11 -15 0 -19 4 -15 16 4 11 -1 18 -14 21 -23 6 -26
19 -7 26 6 2 9 7 5 11 -3 4 -15 2 -25 -5 -28 -17 -112 23 -182 87 -34 30 -50
40 -42 26 17 -33 126 -110 171 -122 29 -8 41 -17 48 -39 15 -42 52 -63 104
-59 40 3 44 6 67 50 13 28 30 48 40 48 9 0 31 9 50 21 27 16 36 18 42 7 6 -9
9 -7 9 8 0 11 12 31 26 45 25 23 60 79 50 79 -3 0 -11 -11 -18 -24z"/>
<path d="M1387 223 c-9 -9 -9 -55 1 -69 4 -6 15 -11 25 -11 20 0 25 51 6 63
-8 4 -7 9 2 15 11 6 9 9 -7 9 -11 0 -24 -3 -27 -7z"/>
<path d="M1105 111 c2 -17 9 -39 14 -49 7 -12 9 -7 4 23 -7 47 -24 72 -18 26z"/>
<path d="M1242 65 c0 -58 2 -64 8 -32 4 21 4 53 0 70 -6 24 -8 15 -8 -38z"/>
<path d="M1070 50 c-12 -8 -12 -10 3 -16 9 -3 17 -10 17 -15 0 -4 -6 -6 -14
-3 -8 3 -17 1 -21 -5 -4 -7 8 -11 34 -11 30 0 41 4 41 15 0 8 -7 15 -15 15 -8
0 -15 7 -15 15 0 17 -9 19 -30 5z"/>
</g>
</svg>
